<?xml version="1.0" encoding="UTF-8"?>
<svg id="Layer_1" data-name="Layer 1" xmlns="http://www.w3.org/2000/svg" viewBox="0 0 1341.58 439.27">
  <defs>
    <style>
      .cls-1, .cls-2 {
        fill: #fff;
      }

      .cls-2 {
        fill-rule: evenodd;
      }
    </style>
  </defs>
  <path class="cls-1" d="m137.7,222.03v70.2c-15.2,2.53-29.2,3.8-42,3.8-32.13,0-56.12-6.3-71.95-18.9C7.92,264.53,0,245.7,0,220.63c0-16.13,3.62-29.92,10.85-41.35,7.23-11.43,18.1-20.17,32.6-26.2,14.5-6.03,32.52-9.05,54.05-9.05,12.13,0,23.77,1.1,34.9,3.3v36.4c-10.13-2-20.47-3-31-3-13.13.07-23.67,1.57-31.6,4.5s-13.68,7.35-17.25,13.25-5.35,13.52-5.35,22.85c0,12.67,3.7,22.22,11.1,28.65,7.4,6.43,18.8,9.65,34.2,9.65h3v-37.6h42.2Z"/>
  <path class="cls-1" d="m251.1,294.03l-34.3-49.5-10.2-.3v49.8h-44.5v-143.7c7.8-1.87,16.6-3.38,26.4-4.55,9.8-1.17,18.9-1.75,27.3-1.75,23.47,0,41.15,4.1,53.05,12.3s17.85,20.8,17.85,37.8c0,9.93-2.28,18.47-6.85,25.6s-11.12,12.77-19.65,16.9l40.4,57.4h-49.5Zm-44.5-82.6c4.73.6,9.6.9,14.6.9,7.87,0,13.72-1.4,17.55-4.2s5.75-7.47,5.75-14-2-10.8-6-13.8-10-4.5-18-4.5c-4.2,0-8.83.43-13.9,1.3v34.3h0Z"/>
  <path class="cls-1" d="m356.99,259.43h75.8v34.6h-120.6v-148h119.6v34.6h-74.8v20.6h64.3v34.6h-64.3v23.6h0Z"/>
  <path class="cls-1" d="m497.49,259.43h75.8v34.6h-120.6v-148h119.6v34.6h-74.8v20.6h64.3v34.6h-64.3v23.6h0Z"/>
  <path class="cls-1" d="m696.29,146.03h42.7v148h-45.4l-57.7-83.3v83.3h-42.7v-148h45.4l57.7,83.3v-83.3Z"/>
  <path class="cls-1" d="m762.99,294.03v-148h45.4v111.8h69.6v36.2h-115Z"/>
  <g>
    <path class="cls-2" d="m1237.4,181.43v24.3h61.62c4.47-7.94,8.64-16.05,12.49-24.3h-74.11Z"/>
    <path class="cls-2" d="m1237.4,286.99c14.05-14.1,27.14-29.48,38.96-45.86h-38.96v45.86Z"/>
    <path class="cls-2" d="m1010.59,146.03v34.6h-74.8v20.6h64.3v34.6h-64.3v23.6h19.45c27.02-16.95,54.77-26.4,83.51-33.88l25.84-79.52h66.2l16.72,51.35c14.54-4.96,29.35-10.92,44.47-18.42v-32.93h119.6v35.2c26.22-56.31,37.36-119.26,24.88-181.23-54.19,50.93-102.8,74.99-207.1,85.46-80.68,8.1-146.31,28.93-189.93,60.57h71.16Z"/>
    <path class="cls-2" d="m912.33,294.03h-21.34v-91.8c-14.82,32.01-14.86,69.71,2.96,112.23,6.1-7.43,12.22-14.22,18.38-20.44h0Z"/>
    <path class="cls-2" d="m1191.99,294.03v-104.37c-12.67,9.4-25.82,17.07-39.29,23.63l26.29,80.74h-44.4l-10.2-33.7h-53.7l-10.2,33.7h-44l11.23-34.55c-5.4,2.17-10.78,4.46-16.13,6.9v27.65h-47.97c-34.8,25.31-67.11,62.85-94.2,124.07,9.72,14.29,18.46,29.45,23.59,15.86,27.59-73.19,69.41-73.1,74.88-73.32,83.77,41.38,185.96,5.97,262.3-66.6h-38.2Z"/>
    <path class="cls-2" d="m1084.4,214.7c8.05-1.87,16.19-3.8,24.41-5.91l-11.31-37.36-13.1,43.27Z"/>
  </g>
</svg>